<?xml version="1.0" standalone="no"?>
<!DOCTYPE svg PUBLIC "-//W3C//DTD SVG 20010904//EN"
 "http://www.w3.org/TR/2001/REC-SVG-20010904/DTD/svg10.dtd">
<svg version="1.0" xmlns="http://www.w3.org/2000/svg"
 width="1170.000000pt" height="1170.000000pt" viewBox="0 0 1170.000000 1170.000000"
 preserveAspectRatio="xMidYMid meet">
<metadata>
Created by potrace 1.14, written by Peter Selinger 2001-2017
</metadata>
<g transform="translate(0.000000,1170.000000) scale(0.100000,-0.100000)"
fill="#000000" stroke="none">
<path d="M0 10605 l1 -1095 29 0 c20 0 30 5 30 15 0 8 5 15 10 15 6 0 10 -9
10 -21 0 -16 4 -19 18 -14 34 15 62 17 62 6 0 -6 -9 -11 -20 -11 -21 0 -27
-15 -10 -25 5 -3 29 -10 52 -14 l43 -8 -35 -10 c-26 -8 -40 -7 -56 3 -21 12
-44 3 -44 -17 0 -9 59 -24 83 -20 15 2 18 -2 12 -21 -4 -13 -12 -25 -18 -27
-14 -5 50 -31 77 -31 12 0 37 -16 56 -35 19 -19 39 -35 46 -35 6 0 18 -7 25
-16 11 -14 10 -16 -16 -14 -53 4 -56 2 -43 -19 9 -15 19 -18 50 -13 37 5 39 4
55 -37 11 -27 22 -40 32 -39 11 2 17 -6 19 -29 2 -19 9 -33 17 -33 18 0 28
-30 15 -45 -7 -8 -7 -16 -2 -19 5 -3 7 -17 4 -32 -3 -15 0 -29 8 -34 9 -5 5
-20 -14 -56 -14 -27 -25 -43 -26 -35 0 27 -15 0 -17 -32 -1 -18 -6 -52 -11
-77 -9 -48 -18 -41 -25 20 -3 29 -4 27 -5 -12 -2 -51 -13 -66 -32 -43 -7 9
-21 13 -31 10 -14 -5 -19 -1 -19 14 0 12 7 21 15 21 8 0 12 6 9 14 -3 8 -1 17
5 21 24 14 10 27 -24 22 -36 -6 -95 18 -95 38 0 6 -10 15 -23 20 -22 10 -28
29 -30 93 0 23 -4 31 -14 28 -7 -3 -13 -1 -13 5 0 6 -9 1 -19 -12 -25 -30 -36
-19 -32 32 1 22 -2 38 -7 35 -18 -11 -41 33 -39 77 2 48 -9 70 -22 48 -12 -19
-33 -3 -26 20 4 11 2 19 -5 19 -8 0 -11 -66 -9 -230 1 -144 5 -230 12 -230 5
0 4 -7 -3 -15 -11 -13 -10 -18 6 -30 17 -13 18 -14 2 -15 -23 0 -23 -26 1 -56
15 -18 18 -35 14 -74 -4 -41 -2 -50 11 -50 9 0 18 11 22 25 3 14 10 25 16 25
15 0 78 -73 78 -91 0 -10 8 -15 22 -15 15 1 24 -6 26 -19 2 -11 10 -27 18 -36
8 -9 12 -24 8 -33 -4 -10 -1 -16 9 -16 8 0 17 -10 20 -21 5 -18 11 -20 33 -15
25 7 26 5 20 -21 -4 -19 -4 -23 3 -14 14 21 41 5 41 -23 0 -15 8 -30 20 -36
13 -7 20 -21 20 -38 0 -23 6 -30 33 -37 25 -8 31 -15 30 -32 -2 -13 2 -23 7
-23 6 0 10 6 10 14 0 15 48 31 59 20 3 -4 0 -9 -7 -11 -6 -3 -10 -9 -7 -13 3
-5 17 -5 31 0 14 6 27 10 29 10 2 0 1 -18 -2 -40 -3 -22 -3 -40 1 -40 12 0 55
54 57 70 0 8 5 -3 10 -24 7 -29 6 -42 -3 -48 -8 -5 -2 -7 17 -6 58 3 94 -2
109 -18 9 -8 20 -12 26 -9 5 3 10 -3 10 -14 0 -12 5 -21 11 -21 6 0 9 -6 6
-14 -4 -10 2 -16 20 -18 30 -3 44 -28 16 -28 -15 0 -16 -2 -3 -10 8 -5 29 -10
47 -10 27 0 30 -3 25 -22 -4 -18 -2 -20 17 -15 16 4 26 -1 38 -19 15 -23 15
-26 -1 -42 -14 -15 -18 -15 -26 -2 -5 8 -12 11 -16 7 -12 -12 18 -38 37 -32
12 4 19 0 21 -12 2 -10 12 -18 23 -18 12 0 21 -8 23 -20 3 -11 10 -24 18 -28
8 -4 14 -16 14 -25 0 -9 7 -26 15 -36 8 -11 15 -30 15 -41 0 -12 9 -30 20 -40
11 -10 20 -29 20 -42 0 -24 -15 -31 -23 -10 -3 7 -6 4 -6 -6 -1 -14 5 -18 27
-15 25 3 27 0 30 -41 2 -27 12 -56 28 -76 13 -18 24 -41 24 -52 0 -11 10 -27
22 -35 14 -10 22 -27 24 -51 2 -20 8 -46 14 -57 6 -12 9 -29 5 -39 -3 -10 1
-24 10 -31 8 -7 15 -21 15 -31 0 -11 5 -18 12 -16 6 1 14 -9 18 -23 7 -26 -7
-70 -22 -70 -4 0 -8 -6 -8 -14 0 -8 -9 -18 -20 -21 -11 -3 -20 -11 -20 -16 0
-5 -16 -32 -35 -59 -19 -27 -35 -55 -35 -61 0 -7 -9 -37 -20 -68 -15 -40 -31
-63 -55 -80 -19 -13 -35 -28 -35 -33 0 -6 -20 -31 -44 -57 -78 -81 -156 -171
-156 -179 0 -4 -18 -21 -40 -38 -22 -16 -42 -37 -45 -46 -3 -9 -26 -28 -50
-43 -25 -14 -49 -34 -55 -45 -6 -11 -17 -20 -25 -20 -8 0 -15 -4 -15 -10 0 -5
-6 -10 -14 -10 -8 0 -31 -15 -50 -34 -20 -18 -55 -46 -78 -62 -124 -84 -268
-210 -268 -236 0 -4 -4 -8 -10 -8 -5 0 -10 -6 -10 -14 0 -8 -7 -22 -16 -31
-17 -17 -75 -132 -89 -175 -4 -13 -14 -31 -22 -39 -11 -11 -14 -28 -10 -64 4
-27 10 -54 15 -61 5 -6 15 -26 22 -45 25 -63 225 -246 330 -302 30 -16 62 -33
70 -38 58 -36 222 -78 259 -66 26 8 51 -4 51 -25 0 -11 5 -22 10 -25 6 -3 10
-34 10 -68 0 -35 4 -98 10 -142 9 -82 14 -131 26 -270 3 -44 12 -93 20 -110 7
-16 15 -55 18 -86 9 -93 26 -113 69 -78 14 10 28 19 32 19 4 0 18 10 31 23 20
19 24 32 24 88 0 47 -4 70 -15 79 -36 30 -49 330 -18 403 9 20 20 37 25 37 4
0 8 7 8 15 0 8 4 15 10 15 16 0 27 -32 35 -97 14 -122 58 -77 69 71 3 49 11
95 17 102 6 8 15 53 19 101 20 210 30 282 49 353 20 78 52 171 62 180 3 3 17
37 32 75 14 39 26 62 26 52 1 -10 6 -15 12 -12 6 4 8 14 5 22 -5 11 -2 13 10
9 11 -4 18 1 21 14 6 22 18 26 29 9 4 -8 9 -7 15 2 6 9 9 -1 9 -28 0 -23 -4
-44 -9 -47 -5 -3 -7 -16 -3 -28 4 -18 2 -20 -16 -16 -27 8 -28 -6 -2 -32 18
-18 28 -50 15 -50 -3 0 -17 12 -31 27 -23 25 -25 25 -43 9 -28 -25 -31 -52 -9
-75 21 -23 23 -23 53 -12 11 5 25 4 33 -1 8 -8 12 -6 12 6 0 14 2 15 14 4 12
-11 12 -18 0 -47 -8 -18 -14 -55 -14 -82 0 -35 -4 -49 -14 -49 -8 0 -17 -7
-20 -16 -9 -24 -7 -54 3 -54 5 0 17 -18 27 -40 20 -45 35 -49 64 -20 16 16 25
18 40 10 24 -13 96 -2 116 17 8 8 15 31 15 51 1 20 3 29 6 20 2 -10 8 -18 13
-18 12 0 70 63 70 76 0 6 12 16 26 23 24 11 26 15 20 55 -5 34 -3 47 10 61 12
12 19 13 24 5 5 -9 13 -6 26 7 25 26 52 35 57 20 7 -21 36 12 43 48 3 19 25
54 50 81 24 27 47 57 50 67 3 9 11 17 18 17 7 0 13 6 14 13 1 6 3 27 5 46 2
19 12 40 23 47 10 7 24 17 29 21 6 4 22 14 37 22 23 12 25 17 17 33 -7 13 -7
23 1 33 6 7 8 24 5 38 -5 17 -2 28 8 34 23 13 47 69 47 108 0 27 5 38 23 46
12 5 30 23 39 40 12 20 25 29 43 29 23 0 35 14 17 22 -4 2 -19 27 -34 57 l-28
55 20 21 c25 27 25 56 1 96 -12 19 -17 42 -14 60 2 17 0 29 -6 29 -6 0 -11 -4
-11 -8 0 -4 -16 -32 -35 -61 -18 -30 -37 -67 -40 -82 -4 -16 -11 -29 -16 -29
-5 0 -9 -6 -9 -14 0 -7 -8 -24 -18 -37 -11 -13 -22 -36 -25 -51 -4 -15 -13
-33 -20 -40 -6 -7 -21 -29 -31 -48 -10 -19 -27 -44 -36 -55 -10 -11 -23 -30
-29 -42 -6 -12 -19 -24 -30 -28 -10 -3 -21 -15 -24 -25 -4 -14 -14 -20 -34
-20 -15 0 -35 -5 -43 -10 -12 -7 -8 -10 15 -10 24 0 31 -5 32 -20 1 -11 -4
-20 -12 -20 -9 0 -12 6 -9 15 10 25 -16 17 -48 -15 -16 -16 -38 -30 -48 -30
-11 0 -30 -5 -44 -11 -15 -7 -32 -8 -43 -3 -10 5 -88 9 -175 9 -86 0 -159 3
-163 7 -9 8 33 89 58 111 11 9 36 17 56 17 66 0 291 84 291 108 0 7 -4 11 -9
7 -5 -3 -58 -6 -117 -7 -102 -1 -108 0 -125 23 -10 13 -19 38 -19 55 0 17 -8
42 -19 55 -31 40 -49 91 -56 154 -8 83 6 147 41 185 51 55 115 115 132 122 10
4 57 7 106 7 l89 1 -23 20 c-13 11 -27 20 -31 20 -4 0 -17 20 -28 45 -11 25
-25 45 -30 45 -6 0 -11 6 -11 14 0 7 -20 30 -44 50 -61 50 -105 118 -117 181
-13 69 13 137 77 203 25 26 53 59 62 75 9 15 19 27 23 27 3 0 28 17 55 38 27
22 76 51 109 67 33 15 62 31 65 35 8 11 103 60 118 60 29 0 74 33 84 62 13 35
81 70 134 66 41 -3 43 0 33 38 -6 20 -17 34 -31 38 l-23 7 23 9 c34 14 23 29
-38 54 -47 19 -55 26 -58 52 -2 16 -9 34 -16 39 -19 15 -47 102 -56 175 -6 45
-4 100 7 180 13 103 19 398 9 500 -4 41 -22 114 -37 150 -6 14 -18 41 -26 60
-38 89 -72 140 -134 202 -37 37 -80 70 -95 74 -35 9 -202 -2 -217 -14 -17 -14
-127 -34 -162 -30 -27 3 -30 6 -27 36 2 19 12 59 23 89 10 31 19 71 19 89 0
18 6 53 14 76 9 27 15 87 15 158 2 184 -2 235 -20 253 -23 23 -34 87 -17 99
23 15 138 -13 138 -34 0 -15 63 -8 74 8 9 12 17 13 39 5 16 -6 45 -11 66 -11
58 0 99 -25 111 -68 8 -31 7 -39 -7 -49 -17 -13 -18 -13 64 -83 7 -5 19 -7 27
-4 8 3 23 -3 33 -15 9 -12 26 -21 36 -21 9 0 20 -6 23 -14 3 -8 17 -17 31 -21
20 -5 24 -10 19 -29 -5 -19 2 -31 29 -55 20 -17 42 -31 50 -31 8 0 15 -7 15
-16 0 -9 21 -42 47 -72 75 -88 77 -93 29 -119 -23 -12 -33 -22 -24 -23 10 0
32 -16 50 -36 18 -20 48 -50 66 -68 26 -26 32 -40 32 -75 0 -28 5 -44 15 -47
8 -4 12 -10 9 -16 -3 -5 2 -25 11 -44 18 -39 13 -104 -8 -104 -7 -1 -6 -5 4
-13 9 -7 18 -29 22 -51 3 -21 14 -47 23 -57 14 -15 14 -21 4 -34 -10 -12 -8
-16 14 -25 25 -9 32 -30 27 -82 -1 -10 4 -18 13 -18 10 0 13 -6 9 -16 -5 -14
-2 -16 23 -10 64 16 132 25 195 25 36 1 69 5 75 10 5 5 63 11 129 14 134 6
155 11 155 37 0 11 5 22 10 25 14 9 13 111 -2 134 -9 14 -8 23 5 42 10 13 17
36 17 51 0 15 4 29 9 32 4 3 11 23 14 43 4 21 22 63 42 93 19 30 35 58 35 62
0 4 17 16 38 27 40 21 112 99 126 138 11 33 70 93 90 93 9 0 25 9 36 20 13 13
33 20 59 20 22 0 43 5 46 10 4 6 53 10 115 10 122 0 155 9 172 45 6 13 19 27
28 30 9 3 32 21 51 39 37 37 90 56 159 56 63 0 70 14 110 223 6 31 15 57 18
57 4 0 32 23 62 50 57 52 96 64 119 36 7 -8 26 -18 43 -21 16 -4 46 -18 64
-30 19 -13 48 -26 63 -30 16 -3 37 -15 47 -26 9 -10 23 -19 29 -19 7 0 18 -7
25 -15 7 -8 27 -15 45 -15 29 0 35 5 50 43 9 23 27 56 41 74 13 17 29 53 35
80 7 26 17 64 24 83 7 20 16 57 20 82 6 40 11 48 39 59 17 7 39 19 48 27 11 9
27 12 45 8 15 -4 49 -11 76 -16 28 -5 62 -21 84 -39 21 -17 44 -31 53 -31 32
0 100 -47 128 -88 50 -75 129 -158 169 -177 36 -17 172 -47 183 -40 5 4 42 75
58 115 6 14 14 47 17 75 8 58 36 118 72 151 33 31 103 32 233 3 133 -29 190
-49 222 -78 45 -42 68 -57 133 -90 17 -8 39 -26 49 -39 16 -20 24 -23 50 -17
17 4 87 8 156 9 104 2 132 -1 168 -16 48 -21 183 -30 189 -13 2 6 19 35 39 65
34 51 86 174 114 265 6 23 27 62 46 88 l34 47 61 0 c43 0 75 -7 112 -24 29
-13 77 -31 107 -40 30 -8 69 -27 85 -41 17 -14 39 -33 51 -43 12 -10 26 -27
32 -39 21 -39 95 -71 163 -72 100 0 161 -11 204 -37 81 -48 115 -64 136 -64
12 0 39 -19 63 -43 22 -24 53 -51 68 -60 14 -9 31 -32 38 -52 6 -19 15 -35 20
-35 4 0 25 -18 46 -39 l39 -40 110 -6 c61 -4 138 -8 171 -8 43 -2 68 -7 81
-19 11 -10 29 -18 40 -18 42 0 83 -13 83 -26 0 -8 4 -14 10 -14 14 0 40 -67
34 -85 -4 -9 0 -15 10 -15 10 0 13 6 10 15 -5 12 3 15 35 15 23 0 41 -5 41
-11 0 -5 -8 -9 -17 -8 -49 4 -58 -15 -22 -47 17 -16 22 -16 29 -4 6 8 10 17
10 20 0 3 12 7 27 8 15 1 36 10 47 21 12 10 28 21 36 24 9 3 10 6 3 6 -7 1
-13 8 -13 17 0 13 -3 14 -15 4 -17 -14 -50 -6 -40 10 3 5 17 10 31 10 13 0 24
5 24 11 0 8 4 9 13 0 16 -13 27 -5 27 20 0 26 -21 35 -36 15 -12 -16 -12 -16
-16 1 -2 10 5 27 15 38 10 11 13 21 7 23 -5 2 -10 21 -10 43 0 28 -4 39 -15
39 -17 0 -20 16 -5 25 7 4 7 12 0 25 -16 29 -12 37 21 44 28 5 30 9 28 40 -2
19 0 38 3 42 4 3 4 19 1 35 -5 26 -3 29 21 29 28 0 34 18 15 49 -9 13 -9 26
-1 51 15 42 9 49 -33 45 -29 -2 -35 0 -35 16 0 12 7 19 20 19 11 0 27 11 36
24 9 15 21 22 30 19 8 -3 21 -2 30 1 23 9 -37 66 -69 66 -27 0 -52 -23 -42
-40 3 -5 1 -10 -4 -10 -6 0 -11 6 -11 14 0 29 13 46 35 46 13 0 27 5 30 10 3
6 15 10 26 10 23 0 25 16 4 36 -19 20 -19 44 0 44 8 0 15 -7 15 -15 0 -8 7
-15 15 -15 8 0 15 4 15 9 0 5 3 16 6 24 4 13 -2 14 -34 10 -31 -4 -40 -2 -46
12 -8 22 2 38 21 31 13 -5 13 -2 -1 20 -22 32 -14 54 19 54 26 0 32 -9 15 -26
-16 -16 6 -66 27 -63 44 4 55 -1 50 -21 -4 -15 0 -20 13 -20 22 0 39 22 22 28
-7 2 -18 9 -25 16 -6 7 -20 15 -29 19 -14 5 -15 12 -8 36 4 16 6 32 3 34 -7 7
19 87 28 87 5 0 9 -33 11 -72 3 -61 6 -73 21 -76 14 -3 18 2 16 20 -1 12 1 38
5 56 11 49 -1 92 -27 93 -19 1 -19 2 -4 6 11 3 27 12 37 21 10 10 26 23 34 30
9 7 16 19 16 27 0 22 -31 18 -37 -5 -5 -21 -15 -24 -90 -34 -38 -6 -43 -4 -43
14 0 11 6 20 13 21 6 0 27 1 46 2 43 2 51 23 16 39 -16 7 -24 17 -20 26 3 7 5
20 5 27 0 7 13 16 29 20 22 5 31 14 36 34 5 25 10 28 48 27 31 -1 42 3 42 14
0 16 -45 19 -79 5 -14 -6 -17 -4 -14 11 3 15 11 18 41 16 41 -4 107 14 107 29
0 5 5 9 10 9 18 0 11 -18 -10 -25 -26 -8 -26 -37 1 -55 11 -8 34 -28 51 -43
26 -25 29 -34 23 -63 -6 -33 -5 -34 13 -19 11 10 19 32 21 58 2 49 11 60 35
51 15 -6 17 -15 13 -45 -5 -35 -3 -39 16 -39 14 0 27 -10 34 -27 17 -35 16
-39 -4 -63 -21 -24 -51 -26 -59 -5 -4 8 -16 15 -28 15 -12 0 -27 5 -34 12 -9
9 -12 9 -12 -1 0 -7 -8 -11 -17 -9 -12 2 -18 13 -18 33 0 28 -2 30 -40 30 -35
0 -40 -3 -43 -24 -3 -20 -1 -23 15 -17 31 13 37 12 41 -6 3 -14 -3 -18 -22
-18 -22 0 -26 -5 -26 -29 0 -37 43 -50 58 -17 9 20 10 20 23 -7 l13 -28 12 31
c7 16 20 30 29 30 17 0 21 -35 4 -46 -8 -4 -7 -9 2 -15 11 -8 11 -11 -4 -20
-21 -12 -21 -35 2 -74 22 -37 61 -47 61 -15 0 11 -7 23 -15 26 -17 7 -20 40
-4 49 6 4 14 17 19 29 9 21 9 21 9 -2 1 -35 20 -65 34 -54 7 5 41 10 76 11 73
2 95 -13 59 -40 -20 -16 -19 -16 23 -24 l44 -9 -39 -4 c-40 -3 -59 9 -49 35 8
19 -58 17 -102 -4 -42 -20 -43 -26 -10 -41 35 -16 35 -16 35 21 1 29 2 30 14
15 7 -10 20 -18 29 -18 16 0 57 -49 57 -69 0 -20 -37 -12 -43 9 -3 11 -12 20
-20 20 -8 0 -17 -9 -20 -20 -4 -16 0 -20 19 -20 13 0 24 -4 24 -9 0 -5 2 -16
6 -24 3 -9 -5 -18 -25 -27 -38 -15 -31 -45 9 -37 15 3 32 1 38 -5 9 -9 19 -8
38 1 22 10 30 9 39 -1 17 -18 0 -76 -22 -80 -12 -2 -17 -14 -17 -43 -1 -37 -3
-40 -28 -40 -15 -1 -30 -4 -34 -8 -4 -4 11 -7 34 -7 22 0 44 -5 47 -10 10 -16
-13 -38 -43 -42 -26 -3 -27 -6 -30 -66 -2 -44 0 -62 8 -57 7 4 9 -1 5 -18 -5
-17 -2 -26 10 -30 17 -7 10 -30 -18 -59 -26 -26 -39 -75 -27 -97 12 -24 26
-27 33 -8 4 9 7 9 18 -1 11 -10 11 -16 1 -32 -10 -17 -9 -23 13 -42 24 -21 32
-48 18 -61 -3 -4 -12 -2 -20 4 -10 9 -13 6 -13 -14 0 -13 -6 -36 -13 -50 -12
-23 -14 -24 -25 -9 -9 14 -11 12 -11 -15 -1 -18 4 -33 10 -33 6 0 24 -9 40
-21 29 -20 40 -59 16 -59 -6 0 -25 -13 -40 -30 -29 -30 -26 -34 20 -30 32 2
31 -37 0 -49 -33 -13 -52 -38 -40 -53 6 -7 13 -33 16 -58 3 -24 11 -46 16 -48
23 -8 10 -22 -14 -16 -27 7 -35 -9 -11 -23 7 -4 17 -22 20 -40 6 -26 4 -34
-13 -43 -16 -8 -21 -21 -21 -51 0 -30 -6 -46 -22 -58 -23 -19 -18 -41 11 -41
10 0 21 -3 24 -7 11 -10 -24 -43 -45 -43 -19 0 -26 -26 -8 -32 5 -1 18 -25 29
-53 10 -27 22 -58 26 -67 5 -13 2 -18 -9 -18 -27 0 -26 -77 1 -98 13 -9 14
-15 5 -24 -16 -16 -15 -43 2 -57 7 -6 11 -22 8 -36 -5 -30 17 -35 25 -5 3 11
12 20 21 20 13 0 12 3 -4 15 -18 14 -17 14 12 15 30 0 30 -1 30 -52 0 -29 -4
-56 -9 -59 -6 -4 -4 -13 4 -22 10 -11 20 -12 41 -5 19 7 45 5 87 -6 33 -9 68
-13 76 -10 23 9 63 -4 86 -27 12 -12 32 -22 45 -24 14 -1 35 -12 48 -24 15
-14 35 -21 64 -21 23 0 42 -5 42 -10 0 -6 11 -8 25 -4 15 4 25 2 25 -5 0 -6 7
-11 15 -11 8 0 15 7 15 15 0 9 10 15 26 15 18 0 25 -4 21 -14 -7 -17 18 -25
61 -18 20 2 32 10 32 19 0 9 6 13 15 9 9 -3 36 1 61 10 30 10 50 12 57 6 7 -6
32 -12 57 -15 25 -3 59 -7 77 -10 21 -4 33 -1 36 8 3 7 27 15 54 18 103 12
147 23 151 36 3 9 0 11 -9 6 -10 -5 -11 -5 -4 3 6 5 19 12 30 14 13 2 21 12
23 30 2 20 12 32 35 42 48 21 87 26 87 10 0 -8 7 -14 15 -14 8 0 15 6 15 13 0
7 9 20 20 30 27 23 25 53 -4 73 -15 9 -22 21 -19 30 3 8 1 14 -5 14 -5 0 -12
10 -15 23 -2 12 -7 29 -11 37 -7 18 40 50 73 50 25 0 29 30 4 30 -19 1 -53 22
-53 34 0 3 9 6 19 6 38 0 51 11 51 46 0 19 -4 34 -10 34 -5 0 -10 13 -10 29 0
16 -6 31 -12 34 -10 3 -10 9 0 26 6 11 12 28 12 36 0 8 6 15 13 15 6 1 -1 8
-16 16 -23 12 -26 18 -16 30 6 8 18 14 25 14 10 0 14 15 14 55 0 30 -4 55 -10
55 -5 0 -10 7 -10 15 0 8 5 15 10 15 14 0 12 37 -2 43 -10 4 -10 6 0 6 23 2
13 40 -13 47 -14 3 -25 10 -25 15 0 5 11 9 25 9 16 0 25 6 25 15 0 8 -4 15
-10 15 -5 0 -10 7 -10 15 0 8 5 15 10 15 6 0 10 16 10 35 0 19 -4 35 -10 35
-5 0 -10 6 -10 13 0 6 -14 18 -31 26 -17 7 -26 16 -21 20 7 4 10 40 10 85 -2
67 -5 80 -20 84 -10 2 -18 13 -18 23 0 18 -1 18 -20 -1 -25 -25 -45 -26 -35
-2 4 9 9 31 10 47 1 17 6 45 10 63 5 21 4 32 -4 32 -6 0 -11 9 -11 20 0 12 7
20 16 20 9 0 14 7 12 17 -3 17 -37 22 -77 12 -8 -2 -17 4 -19 14 -2 10 2 17
12 17 9 0 16 5 16 10 0 6 7 10 15 10 8 0 15 7 15 15 0 9 -6 15 -12 14 -38 -5
-55 22 -23 35 8 3 15 12 15 21 0 11 -12 15 -42 16 -24 1 -49 1 -55 0 -16 -2
-18 55 -3 64 6 3 10 19 10 35 0 16 5 32 10 35 16 10 1 26 -18 21 -16 -5 -62
24 -62 39 0 4 16 4 36 1 48 -10 88 15 80 49 -5 18 0 28 16 39 l22 16 -22 0
c-14 0 -21 -4 -17 -11 4 -6 -2 -13 -12 -15 -11 -3 -26 -17 -35 -31 l-16 -26
-19 44 c-21 47 -20 67 3 48 22 -18 47 -3 42 26 -3 14 -2 25 2 25 16 0 18 29 5
66 -8 22 -14 31 -15 22 0 -21 -25 -23 -67 -7 l-28 11 30 15 c17 9 32 18 35 20
9 8 -25 22 -42 17 -20 -6 -34 14 -19 29 6 6 11 20 11 32 0 12 5 26 11 32 14
14 -17 83 -37 83 -8 0 -14 5 -14 10 0 17 17 11 41 -15 34 -35 45 -31 54 18 16
89 15 106 -5 117 -23 13 -26 43 -5 60 20 17 35 4 35 -31 0 -37 14 -37 33 -1
12 26 12 31 -5 51 -21 27 -23 56 -4 90 l14 24 7 -22 c10 -32 41 -23 38 11 -1
22 2 25 20 21 21 -5 21 -4 -2 13 -17 12 -26 14 -29 6 -2 -7 -10 -12 -19 -12
-18 0 -9 36 18 66 11 11 19 29 19 40 1 16 3 15 15 -6 13 -24 14 -24 21 -5 4
11 14 28 22 37 11 13 12 24 4 45 -9 26 -10 26 -18 8 -7 -18 -33 -51 -35 -43
-8 42 -7 98 1 98 5 0 10 -4 10 -10 0 -5 5 -10 11 -10 7 0 9 12 5 33 -5 26 -2
35 14 45 12 7 25 10 30 7 6 -4 10 -1 10 4 0 8 -258 11 -850 11 l-849 0 -11
-40 c-13 -46 -25 -45 -34 3 -6 30 -10 34 -39 34 -53 0 -77 -30 -32 -41 28 -7
51 -41 35 -51 -5 -3 -10 -26 -10 -51 0 -24 -4 -44 -10 -44 -5 0 -10 7 -10 15
0 8 -4 15 -10 15 -5 0 -10 -7 -10 -15 0 -8 5 -15 10 -15 6 0 10 -11 10 -25 0
-16 -6 -25 -15 -25 -8 0 -15 6 -15 14 0 20 -39 66 -56 66 -22 0 -17 -30 8 -50
l23 -19 -23 -16 c-12 -9 -22 -23 -22 -31 0 -17 17 -19 23 -1 2 6 8 8 13 4 4
-4 3 -17 -4 -27 -10 -17 -10 -20 3 -20 9 0 25 15 36 34 12 22 26 33 34 30 9
-4 16 3 21 20 7 30 20 33 32 9 13 -25 4 -43 -21 -43 -21 0 -54 -36 -49 -52 1
-5 -7 -8 -17 -8 -24 0 -51 -10 -51 -19 0 -3 14 -6 30 -7 33 -1 48 -10 37 -21
-8 -8 -128 -12 -141 -5 -12 7 15 22 42 22 30 0 28 13 -6 28 -26 11 -28 16 -26
61 3 41 -1 51 -21 69 -25 22 -33 42 -16 42 5 0 12 9 16 19 7 22 36 36 44 22 4
-6 12 -6 21 -1 19 13 60 13 60 1 0 -6 -4 -13 -10 -16 -15 -9 -12 -25 4 -25 8
0 18 18 24 40 9 35 7 44 -8 58 -9 9 -21 27 -24 40 l-7 22 -4870 0 -4869 0 0
-1095z m9720 1051 c0 -28 -15 -42 -26 -25 -4 8 -9 7 -15 -2 -4 -7 -11 -11 -14
-7 -10 9 25 58 41 58 8 0 14 -10 14 -24z m422 -21 c-12 -22 -27 -2 -18 22 5
12 10 13 17 6 7 -7 8 -17 1 -28z m-64 8 c-4 -20 -35 -30 -50 -15 -15 15 0 32
28 32 19 0 25 -5 22 -17z m-180 -51 c3 -10 -4 -13 -24 -10 -15 2 -29 9 -32 16
-3 10 4 13 24 10 15 -2 29 -9 32 -16z m269 -4 c-3 -8 -6 -5 -6 6 -1 11 2 17 5
13 3 -3 4 -12 1 -19z m-87 -20 c-1 -28 -2 -30 -11 -15 -6 10 -8 25 -5 33 9 24
16 16 16 -18z m-153 0 c-3 -8 -6 -5 -6 6 -1 11 2 17 5 13 3 -3 4 -12 1 -19z
m211 -5 c2 -13 -1 -23 -7 -23 -5 0 -12 -10 -14 -22 -4 -19 -4 -18 -6 5 0 16
-6 37 -12 48 -9 18 -8 20 13 17 15 -2 24 -11 26 -25z m110 -11 c3 -16 -1 -20
-12 -16 -19 7 -22 48 -3 42 6 -3 13 -14 15 -26z m-701 -28 c6 -16 -22 -52 -33
-41 -9 9 5 57 17 57 5 0 12 -7 16 -16z m373 -24 c0 -13 -5 -18 -15 -14 -8 4
-15 12 -15 20 0 8 7 14 15 14 8 0 15 -9 15 -20z m90 -16 c0 -17 -5 -24 -20
-24 -23 0 -23 0 -10 35 12 31 30 24 30 -11z m-410 -19 c0 -16 -6 -25 -15 -25
-18 0 -18 5 -5 31 14 26 20 24 20 -6z m389 -16 c20 -7 31 -18 31 -30 0 -10 -4
-19 -10 -19 -5 0 -8 -10 -6 -22 2 -18 11 -24 42 -29 29 -4 35 -7 22 -13 -9 -4
-21 -5 -27 -2 -14 9 -41 -4 -41 -20 0 -17 90 -20 107 -3 19 19 33 1 22 -28 -5
-14 -7 -34 -4 -44 5 -15 1 -17 -20 -13 -29 5 -31 -3 -9 -34 21 -30 32 -28 51
13 20 43 46 47 41 8 -2 -16 -8 -27 -15 -25 -7 1 -13 -7 -13 -17 0 -11 -4 -23
-10 -26 -5 -3 -10 -1 -10 4 0 6 -13 11 -28 11 -15 0 -33 5 -40 12 -16 16 -15
51 1 67 10 10 8 15 -7 27 -12 8 -23 10 -31 4 -6 -5 -17 -5 -25 0 -10 6 -23 4
-38 -6 -24 -16 -52 -13 -52 6 0 5 13 10 29 10 41 0 46 14 20 49 -14 19 -22 43
-21 66 1 32 -6 40 -30 36 -5 0 -8 6 -8 14 0 18 34 20 79 4z m121 1 c0 -5 -8
-13 -17 -19 -17 -9 -17 -11 2 -25 11 -9 30 -14 43 -11 17 4 22 1 22 -14 0 -11
6 -21 13 -24 10 -4 10 -7 0 -18 -10 -10 -13 -10 -13 0 0 29 -51 54 -64 32 -10
-15 -51 -7 -46 9 2 8 4 30 4 48 0 29 2 32 28 32 15 0 28 -4 28 -10z m100 -50
c0 -11 -7 -20 -15 -20 -15 0 -21 21 -8 33 12 13 23 7 23 -13z m-593 -31 c-20
-16 -23 -17 -34 -2 -19 25 2 45 32 31 l24 -11 -22 -18z m323 -59 c0 -5 -4 -10
-10 -10 -5 0 -10 5 -10 10 0 6 5 10 10 10 6 0 10 -4 10 -10z m-50 -40 c0 -5
-4 -10 -9 -10 -6 0 -13 5 -16 10 -3 6 1 10 9 10 9 0 16 -4 16 -10z m370 -10
c-27 -20 -36 -19 -27 5 4 8 17 15 29 15 l23 0 -25 -20z m-651 -51 c-12 -22
-29 -16 -29 10 0 25 11 33 26 20 10 -8 11 -16 3 -30z m611 -43 c0 -8 -4 -18
-10 -21 -5 -3 -10 3 -10 14 0 12 5 21 10 21 6 0 10 -6 10 -14z m-650 -36 c0
-5 -4 -10 -10 -10 -5 0 -10 5 -10 10 0 6 5 10 10 10 6 0 10 -4 10 -10z m640
-25 c0 -8 6 -15 13 -15 6 0 18 -4 26 -9 12 -8 12 -12 -2 -25 -21 -22 -37 -20
-37 3 0 11 -4 23 -10 26 -5 3 -10 13 -10 21 0 8 5 14 10 14 6 0 10 -7 10 -15z
m-110 -9 c0 -8 -4 -18 -10 -21 -5 -3 -10 3 -10 14 0 12 5 21 10 21 6 0 10 -6
10 -14z m105 -55 c8 -21 0 -24 -24 -9 -12 7 -21 21 -21 30 0 16 3 16 20 6 11
-7 22 -19 25 -27z m-65 -1 c14 -9 23 -79 10 -81 -3 -1 -29 -2 -59 -2 -55 -2
-68 6 -51 33 8 13 13 13 31 2 18 -12 23 -12 30 0 5 7 7 19 4 26 -10 27 9 39
35 22z m-566 -69 c-7 -8 -35 9 -29 19 4 6 11 5 20 -3 7 -6 11 -14 9 -16z m24
-48 c-2 -11 -14 -19 -31 -21 -30 -4 -36 12 -9 27 26 16 44 13 40 -6z m-98 3
c0 -11 -19 -15 -25 -6 -3 5 1 10 9 10 9 0 16 -2 16 -4z m-12 -94 c2 -7 -3 -12
-12 -12 -9 0 -16 7 -16 16 0 17 22 14 28 -4z m1912 -109 c0 -7 -9 -13 -20 -13
-15 0 -20 7 -20 25 0 23 2 24 20 13 11 -7 20 -18 20 -25z m-1900 -48 c0 -8 -4
-15 -10 -15 -5 0 -10 7 -10 15 0 8 5 15 10 15 6 0 10 -7 10 -15z m765 -205 c0
-7 -6 -15 -12 -17 -8 -3 -13 4 -13 17 0 13 5 20 13 18 6 -3 12 -11 12 -18z
m-75 -58 c0 -5 -7 -17 -15 -28 -14 -18 -14 -18 -15 9 0 17 5 27 15 27 8 0 15
-4 15 -8z m-750 -108 c0 -10 -7 -14 -22 -12 -32 5 -35 28 -4 28 17 0 26 -5 26
-16z m-25 -65 c0 -8 -12 -15 -27 -17 -32 -4 -36 5 -10 24 20 16 37 13 37 -7z
m-2 -186 c-7 -2 -19 -2 -25 0 -7 3 -2 5 12 5 14 0 19 -2 13 -5z m807 -103 c0
-5 -4 -10 -10 -10 -5 0 -10 5 -10 10 0 6 5 10 10 10 6 0 10 -4 10 -10z m1380
-10 c0 -23 -25 -27 -33 -6 -7 16 1 26 20 26 7 0 13 -9 13 -20z m-14 -71 c19
-22 19 -22 -6 -14 -32 9 -33 11 -25 24 8 15 9 14 31 -10z m54 -129 c0 -5 -8
-10 -17 -10 -15 0 -16 2 -3 10 19 12 20 12 20 0z m-1460 -159 c0 -6 -4 -13
-10 -16 -5 -3 -10 1 -10 9 0 9 5 16 10 16 6 0 10 -4 10 -9z m1500 -171 c0 -35
-10 -38 -34 -11 -21 23 -14 41 15 41 14 0 19 -7 19 -30z m-1470 -119 c0 -17
-18 -21 -24 -6 -3 9 0 15 9 15 8 0 15 -4 15 -9z m-10174 -228 c-10 -10 -19 5
-10 18 6 11 8 11 12 0 2 -7 1 -15 -2 -18z m532 -15 c7 -7 12 -17 12 -24 0 -19
-32 -26 -48 -10 -13 12 -13 18 -2 30 15 19 22 20 38 4z m-28 -83 c0 -8 -7 -15
-15 -15 -16 0 -20 12 -8 23 11 12 23 8 23 -8z m9635 -55 c3 -5 1 -10 -4 -10
-6 0 -11 5 -11 10 0 6 2 10 4 10 3 0 8 -4 11 -10z m-9995 -25 c0 -8 -4 -15 -9
-15 -5 0 -11 7 -15 15 -3 9 0 15 9 15 8 0 15 -7 15 -15z m10115 -135 c4 -6 -5
-10 -20 -10 -15 0 -24 4 -20 10 3 6 12 10 20 10 8 0 17 -4 20 -10z m-9975 -25
c0 -8 -4 -15 -10 -15 -5 0 -10 7 -10 15 0 8 5 15 10 15 6 0 10 -7 10 -15z
m-40 -285 c6 -11 9 -20 8 -20 -2 0 -11 9 -21 20 -9 11 -13 20 -7 20 5 0 14 -9
20 -20z m123 -141 c-5 -5 -14 -4 -22 0 -11 7 -11 13 -1 32 l13 23 9 -24 c5
-13 5 -27 1 -31z m77 -121 c0 -12 -8 -18 -24 -18 -28 0 -54 25 -34 33 27 11
58 3 58 -15z m96 -38 c18 -7 24 -14 17 -21 -12 -12 -63 5 -63 21 0 13 12 13
46 0z m124 -66 c0 -8 -4 -12 -10 -9 -5 3 -10 10 -10 16 0 5 5 9 10 9 6 0 10
-7 10 -16z m1610 -229 c0 -8 -4 -15 -10 -15 -5 0 -10 7 -10 15 0 8 5 15 10 15
6 0 10 -7 10 -15z m25 -1535 c3 -5 -1 -10 -10 -10 -9 0 -13 5 -10 10 3 6 8 10
10 10 2 0 7 -4 10 -10z m-780 -1100 c-3 -5 -13 -10 -21 -10 -8 0 -14 5 -14 10
0 6 9 10 21 10 11 0 17 -4 14 -10z m-516 -851 c-25 -16 -33 -9 -13 10 10 10
21 14 23 8 2 -5 -3 -13 -10 -18z"/>
<path d="M11535 11440 c-3 -5 3 -10 14 -10 12 0 21 5 21 10 0 6 -6 10 -14 10
-8 0 -18 -4 -21 -10z"/>
<path d="M9810 11180 c0 -29 4 -40 15 -40 11 0 15 11 15 40 0 29 -4 40 -15 40
-11 0 -15 -11 -15 -40z"/>
<path d="M9984 11115 c-9 -23 15 -48 32 -34 19 16 17 26 -6 39 -16 9 -22 8
-26 -5z"/>
<path d="M11462 11104 c9 -9 21 -13 27 -10 20 13 11 26 -16 26 -25 0 -26 -1
-11 -16z"/>
<path d="M9740 10990 c0 -5 9 -10 21 -10 14 0 24 -10 32 -30 12 -33 37 -39 57
-15 16 19 -3 45 -31 45 -11 0 -19 5 -19 10 0 6 -13 10 -30 10 -16 0 -30 -4
-30 -10z"/>
<path d="M11432 10938 c-14 -14 -16 -38 -3 -38 5 0 14 7 21 15 17 20 0 41 -18
23z"/>
<path d="M9725 10920 c-7 -12 2 -30 16 -30 12 0 12 27 0 35 -5 3 -12 1 -16 -5z"/>
<path d="M9825 10890 c3 -5 8 -10 11 -10 2 0 4 5 4 10 0 6 -5 10 -11 10 -5 0
-7 -4 -4 -10z"/>
<path d="M9909 10877 c-6 -28 9 -77 24 -77 4 0 7 9 7 20 0 11 -4 20 -9 20 -6
0 -11 15 -13 33 l-3 32 -6 -28z"/>
<path d="M9840 10860 c0 -5 -8 -10 -17 -10 -12 0 -14 -3 -7 -10 14 -14 68 5
59 20 -8 13 -35 13 -35 0z"/>
<path d="M9690 10835 c0 -8 6 -15 14 -15 8 0 16 7 20 15 4 10 -1 15 -14 15
-11 0 -20 -7 -20 -15z"/>
<path d="M10037 10794 c-6 -7 24 -73 34 -74 9 0 18 51 12 67 -5 13 -35 18 -46
7z"/>
<path d="M9856 10781 c-4 -6 -3 -19 3 -28 9 -17 10 -17 17 0 8 21 -10 45 -20
28z"/>
<path d="M9917 10754 c-12 -12 5 -32 23 -27 17 4 17 7 5 19 -15 16 -19 17 -28
8z"/>
<path d="M9728 10728 c9 -9 15 -9 24 0 9 9 7 12 -12 12 -19 0 -21 -3 -12 -12z"/>
<path d="M9765 10710 c3 -5 13 -10 21 -10 8 0 14 5 14 10 0 6 -9 10 -21 10
-11 0 -17 -4 -14 -10z"/>
<path d="M9911 10678 c-1 -11 6 -18 18 -18 11 0 21 -5 23 -12 3 -7 11 -9 24
-3 23 10 31 11 69 14 24 1 27 3 13 11 -9 6 -43 9 -77 7 -36 -2 -62 1 -65 7 -2
6 -5 3 -5 -6z"/>
<path d="M9600 10670 c0 -5 18 -10 41 -10 24 0 38 4 34 10 -3 6 -22 10 -41 10
-19 0 -34 -4 -34 -10z"/>
<path d="M9745 10644 c-17 -13 -17 -14 13 -14 18 0 32 4 32 9 0 16 -26 19 -45
5z"/>
<path d="M10137 10628 c7 -57 10 -60 35 -46 30 17 38 28 38 56 0 19 -5 22 -38
22 -38 0 -38 -1 -35 -32z"/>
<path d="M9572 10625 c-11 -13 -9 -15 8 -15 11 0 20 7 20 15 0 19 -11 19 -28
0z"/>
<path d="M9958 10623 c6 -2 18 -2 25 0 6 3 1 5 -13 5 -14 0 -19 -2 -12 -5z"/>
<path d="M9948 10603 c18 -2 45 -2 60 0 15 2 0 4 -33 4 -33 0 -45 -2 -27 -4z"/>
<path d="M9768 10573 c7 -3 16 -2 19 1 4 3 -2 6 -13 5 -11 0 -14 -3 -6 -6z"/>
<path d="M10105 10530 c3 -5 10 -10 16 -10 5 0 9 5 9 10 0 6 -7 10 -16 10 -8
0 -12 -4 -9 -10z"/>
<path d="M9538 10496 c-4 -21 -1 -24 23 -22 36 3 45 12 29 31 -19 23 -47 18
-52 -9z"/>
<path d="M10095 10490 c4 -6 11 -8 16 -5 14 9 11 15 -7 15 -8 0 -12 -5 -9 -10z"/>
<path d="M9617 10483 c-4 -4 6 -12 23 -19 34 -15 39 -33 10 -41 -11 -3 -18 -9
-15 -13 7 -12 73 13 68 26 -2 6 3 14 12 18 24 9 8 26 -23 24 -15 -1 -36 2 -48
5 -11 4 -24 4 -27 0z"/>
<path d="M9906 10451 c-5 -14 -4 -27 3 -34 15 -15 18 -7 11 28 -6 29 -6 29
-14 6z"/>
<path d="M9550 10403 c0 -12 4 -23 9 -23 5 0 11 11 13 23 3 15 0 24 -9 24 -7
0 -13 -11 -13 -24z"/>
<path d="M9756 10417 c3 -10 9 -15 12 -12 3 3 0 11 -7 18 -10 9 -11 8 -5 -6z"/>
<path d="M9895 10340 c-16 -7 -17 -9 -3 -9 9 -1 20 4 23 9 7 11 7 11 -20 0z"/>
<path d="M10071 10318 c-1 -38 9 -58 29 -58 10 0 21 -6 24 -12 3 -7 3 -2 0 12
-4 14 -13 29 -21 33 -8 5 -18 18 -23 30 -8 21 -9 21 -9 -5z"/>
<path d="M9510 10300 c-11 -7 -5 -10 23 -10 23 0 36 4 32 10 -8 13 -35 13 -55
0z"/>
<path d="M9510 10245 c0 -9 6 -12 15 -9 8 4 15 10 15 15 0 5 -7 9 -15 9 -8 0
-15 -7 -15 -15z"/>
<path d="M9900 10210 c0 -5 5 -10 10 -10 6 0 10 5 10 10 0 6 -4 10 -10 10 -5
0 -10 -4 -10 -10z"/>
<path d="M9452 10163 c2 -10 12 -19 23 -22 25 -4 44 -29 46 -61 1 -18 4 -13 9
15 7 32 5 42 -8 52 -9 7 -22 17 -29 23 -20 16 -45 12 -41 -7z"/>
<path d="M9612 10162 c-17 -5 -15 -32 3 -32 7 0 18 -6 22 -13 4 -8 17 -17 27
-20 14 -6 16 -4 9 5 -5 7 -18 25 -29 39 -10 14 -25 24 -32 21z"/>
<path d="M10072 10150 c0 -14 2 -19 5 -12 2 6 2 18 0 25 -3 6 -5 1 -5 -13z"/>
<path d="M9900 10070 c0 -5 5 -10 10 -10 6 0 10 5 10 10 0 6 -4 10 -10 10 -5
0 -10 -4 -10 -10z"/>
<path d="M9501 10032 c-16 -29 -14 -39 9 -45 17 -4 18 -1 13 27 -8 40 -9 42
-22 18z"/>
<path d="M9997 10019 c7 -7 15 -10 18 -7 3 3 -2 9 -12 12 -14 6 -15 5 -6 -5z"/>
<path d="M10117 9823 c-12 -11 -8 -23 8 -23 8 0 15 7 15 15 0 16 -12 20 -23 8z"/>
<path d="M9381 9764 c-9 -16 -12 -17 -21 -4 -5 8 -10 10 -10 5 0 -17 22 -35
42 -35 19 0 23 16 9 39 -7 11 -11 10 -20 -5z"/>
<path d="M9426 9765 c4 -8 7 -15 9 -15 2 0 5 7 9 15 3 9 0 15 -9 15 -9 0 -12
-6 -9 -15z"/>
<path d="M9450 9690 c0 -5 5 -10 10 -10 6 0 10 5 10 10 0 6 -4 10 -10 10 -5 0
-10 -4 -10 -10z"/>
<path d="M2152 9558 c2 -6 14 -15 26 -19 16 -6 20 -5 16 6 -6 16 -47 29 -42
13z"/>
<path d="M10070 9515 c-13 -16 -3 -20 24 -9 9 3 13 10 10 15 -8 13 -20 11 -34
-6z"/>
<path d="M2300 9470 c0 -5 9 -10 21 -10 11 0 17 5 14 10 -3 6 -13 10 -21 10
-8 0 -14 -4 -14 -10z"/>
<path d="M20 9435 c0 -9 5 -15 11 -13 14 5 14 21 0 26 -6 2 -11 -4 -11 -13z"/>
<path d="M10055 9441 c-9 -16 12 -22 39 -11 14 5 26 12 26 15 0 9 -59 5 -65
-4z"/>
<path d="M2490 9280 c0 -5 5 -10 11 -10 5 0 7 5 4 10 -3 6 -8 10 -11 10 -2 0
-4 -4 -4 -10z"/>
<path d="M5535 9149 c-499 -8 -590 -15 -671 -46 -68 -27 -148 -66 -152 -75
-12 -27 -191 -76 -232 -63 -15 5 -19 0 -22 -22 -2 -17 -10 -29 -24 -33 -11 -3
-27 -10 -35 -17 -60 -51 -89 -72 -126 -91 -23 -11 -50 -25 -60 -31 -10 -5 -26
-12 -35 -15 -27 -8 -22 -32 20 -97 29 -45 44 -59 69 -64 18 -4 43 -16 55 -27
12 -10 31 -17 40 -14 10 2 24 -1 31 -7 6 -7 26 -13 42 -14 17 -1 51 -5 78 -8
l47 -8 0 32 c0 32 3 34 53 45 18 4 27 13 27 26 0 30 40 25 79 -11 40 -36 65
-35 69 4 4 31 17 38 102 57 30 6 66 15 80 20 14 4 45 14 70 21 25 7 52 18 61
26 10 8 49 14 107 15 51 1 92 6 92 11 0 5 15 7 34 6 19 -2 40 2 48 8 9 8 26 9
52 3 50 -11 207 -2 270 16 27 8 74 14 103 14 30 0 67 7 83 15 26 14 34 13 72
-2 24 -9 52 -22 63 -29 11 -7 35 -15 53 -19 17 -4 32 -11 32 -17 0 -6 17 -8
43 -6 23 3 57 0 76 -5 26 -7 43 -5 71 8 37 17 38 16 79 -9 35 -22 44 -24 61
-14 18 11 23 9 43 -16 18 -22 35 -30 76 -37 30 -4 61 -15 71 -24 12 -11 40
-15 114 -15 94 0 100 -1 137 -31 33 -26 50 -31 114 -36 52 -4 75 -10 75 -19 0
-7 15 -16 34 -20 19 -3 42 -15 52 -25 10 -11 30 -19 51 -19 26 0 36 -6 44 -24
11 -24 48 -36 111 -36 17 0 41 -13 64 -34 21 -19 43 -32 50 -29 7 3 23 -2 36
-11 12 -9 27 -16 33 -16 16 0 125 103 125 118 0 7 7 12 16 12 13 0 15 -7 10
-32 -20 -117 -21 -112 5 -105 12 3 29 1 36 -5 16 -13 68 6 59 21 -6 8 15 21
35 21 5 0 9 -11 9 -24 0 -54 48 -57 123 -8 23 15 54 32 70 39 15 7 27 20 26
30 -1 27 -33 77 -57 89 -12 6 -43 32 -69 58 -25 26 -64 56 -85 67 -21 11 -41
26 -44 33 -7 19 -64 41 -165 64 -78 19 -152 45 -201 72 -10 6 -23 10 -29 10
-6 0 -25 7 -42 14 -34 16 -115 43 -212 71 -33 9 -108 32 -168 51 -59 19 -114
34 -123 34 -9 0 -45 14 -80 31 -65 32 -143 53 -254 69 -77 10 -148 23 -210 38
-212 51 -202 50 -785 41z"/>
<path d="M10080 9046 c0 -9 5 -16 10 -16 6 0 10 4 10 9 0 6 -4 13 -10 16 -5 3
-10 -1 -10 -9z"/>
<path d="M11650 8974 c0 -4 5 -24 11 -45 11 -34 13 -36 27 -22 13 13 13 16 1
24 -10 6 -10 9 -1 9 6 0 12 9 12 20 0 15 -7 20 -25 20 -14 0 -25 -3 -25 -6z"/>
<path d="M200 8935 c0 -8 5 -15 10 -15 6 0 10 7 10 15 0 8 -4 15 -10 15 -5 0
-10 -7 -10 -15z"/>
<path d="M10100 8890 c0 -5 5 -10 10 -10 6 0 10 5 10 10 0 6 -4 10 -10 10 -5
0 -10 -4 -10 -10z"/>
<path d="M320 8850 c0 -5 5 -10 10 -10 6 0 10 5 10 10 0 6 -4 10 -10 10 -5 0
-10 -4 -10 -10z"/>
<path d="M10101 8804 c0 -11 3 -14 6 -6 3 7 2 16 -1 19 -3 4 -6 -2 -5 -13z"/>
<path d="M4060 8702 c0 -5 -11 -14 -25 -20 -25 -12 -38 -21 -74 -52 -9 -8 -29
-21 -44 -29 -32 -17 -35 -49 -10 -92 14 -24 24 -29 55 -29 31 0 38 -4 38 -20
0 -11 5 -20 10 -20 6 0 10 11 10 24 0 31 44 84 73 88 19 3 22 8 19 46 -2 25 1
42 7 42 18 0 13 42 -6 56 -20 15 -53 18 -53 6z m-68 -164 c-9 -9 -15 -9 -24 0
-9 9 -7 12 12 12 19 0 21 -3 12 -12z"/>
<path d="M3660 8490 c0 -10 -38 -30 -68 -36 -40 -8 -105 -73 -74 -74 4 0 29
-21 56 -45 54 -49 61 -52 73 -31 12 22 103 -36 103 -65 0 -12 5 -19 12 -17 22
8 25 51 7 100 -9 25 -14 57 -12 71 4 19 -1 28 -19 37 -33 18 -33 19 -13 34 10
7 15 18 11 24 -9 15 -76 16 -76 2z"/>
<path d="M150 8415 c0 -5 5 -17 10 -25 5 -8 10 -10 10 -5 0 6 -5 17 -10 25 -5
8 -10 11 -10 5z"/>
<path d="M3408 8359 c-53 -39 -28 -74 52 -74 49 0 55 2 60 25 4 14 2 35 -3 48
-13 29 -71 30 -109 1z m77 -39 c3 -5 1 -10 -4 -10 -6 0 -11 5 -11 10 0 6 2 10
4 10 3 0 8 -4 11 -10z"/>
<path d="M8077 8333 c-4 -3 -7 -13 -7 -22 1 -13 3 -13 11 2 11 19 8 33 -4 20z"/>
<path d="M8010 8265 c-7 -9 -11 -18 -8 -20 3 -3 11 1 18 10 7 9 11 18 8 20 -3
3 -11 -1 -18 -10z"/>
<path d="M3255 8254 c-27 -8 -55 -20 -60 -27 -6 -8 -20 -17 -33 -21 -33 -11
-43 -38 -29 -75 8 -22 18 -31 34 -31 13 0 23 -4 23 -10 0 -5 23 -10 50 -10 28
0 50 5 50 10 0 6 29 10 66 10 45 0 63 3 58 11 -8 14 14 29 44 29 27 0 29 -20
3 -27 -17 -4 -14 -9 19 -39 41 -37 80 -45 80 -16 0 22 -11 37 -33 45 -22 8
-13 27 14 27 10 0 19 5 19 11 0 37 -110 112 -149 102 -11 -3 -39 2 -61 11 -22
9 -41 15 -43 15 -1 -1 -24 -8 -52 -15z m200 -94 c3 -5 -1 -10 -9 -10 -9 0 -16
5 -16 10 0 6 4 10 9 10 6 0 13 -4 16 -10z"/>
<path d="M8458 8122 c-10 -2 -18 -11 -18 -21 0 -9 -7 -27 -16 -40 l-16 -23 48
7 c59 9 69 17 55 42 -14 28 -33 40 -53 35z"/>
<path d="M3306 8074 c-30 -29 -13 -44 49 -44 39 0 49 11 32 32 -19 24 -63 31
-81 12z"/>
<path d="M660 7956 c0 -8 4 -17 8 -20 13 -8 35 11 28 23 -10 16 -36 14 -36 -3z"/>
<path d="M733 7943 c9 -2 23 -2 30 0 6 3 -1 5 -18 5 -16 0 -22 -2 -12 -5z"/>
<path d="M8615 7855 c-19 -45 -13 -55 31 -55 43 0 54 22 27 58 -29 38 -42 38
-58 -3z"/>
<path d="M843 7805 c-7 -16 -8 -25 -1 -25 6 0 8 -11 6 -25 -7 -34 23 -34 39 1
9 19 9 32 1 50 -14 31 -30 30 -45 -1z"/>
<path d="M2991 7787 c-20 -16 -38 -32 -41 -37 -3 -5 -17 -11 -31 -15 -14 -3
-53 -32 -87 -63 -93 -86 -143 -127 -181 -146 -18 -10 -36 -26 -38 -37 -3 -11
-16 -22 -28 -25 -13 -3 -47 -34 -76 -67 -29 -34 -61 -70 -71 -80 -29 -29 -16
-117 22 -152 23 -21 26 -77 8 -140 -6 -22 -12 -44 -12 -50 -1 -5 -7 -20 -14
-32 -10 -18 -9 -24 4 -37 8 -9 11 -16 6 -16 -17 0 -21 -39 -5 -51 12 -11 12
-14 -1 -21 -21 -12 -21 -54 0 -62 8 -3 13 -10 9 -15 -7 -12 27 -23 47 -16 8 3
19 18 25 33 l11 27 1 -27 c2 -41 21 -45 21 -4 0 38 8 44 28 24 17 -17 28 0 15
22 -15 24 -2 35 51 43 49 8 64 21 46 42 -10 12 -10 15 2 15 19 0 30 59 18 100
-9 31 -2 38 18 18 16 -16 45 9 39 34 -4 15 1 18 37 18 62 0 105 42 85 82 -7
13 -4 20 11 28 31 17 25 40 -10 40 -25 0 -30 4 -30 23 1 19 2 20 10 5 12 -19
50 -13 50 9 0 11 7 13 25 9 18 -5 25 -2 25 8 0 8 -5 18 -11 22 -6 3 -9 19 -7
35 3 16 1 29 -4 29 -19 0 -6 41 17 52 22 10 30 29 26 64 -1 6 13 17 31 24 18
6 44 17 57 23 13 7 29 12 35 13 6 0 19 2 29 2 9 1 17 10 17 20 0 10 6 27 14
38 10 13 11 23 4 31 -5 7 -14 28 -18 48 -8 37 4 47 29 23 11 -11 12 -10 7 0
-4 7 -3 19 4 27 8 10 8 15 0 20 -7 4 -9 18 -6 31 5 19 2 24 -12 24 -10 0 -23
-5 -29 -11 -8 -8 -17 -6 -33 9 -33 30 -93 25 -139 -11z m169 -27 c0 -5 -4 -10
-10 -10 -5 0 -10 5 -10 10 0 6 5 10 10 10 6 0 10 -4 10 -10z m-131 -214 c15
-8 20 -16 13 -20 -12 -7 -52 13 -52 26 0 11 11 9 39 -6z m-109 -226 c0 -11 -7
-20 -15 -20 -15 0 -21 21 -8 33 12 13 23 7 23 -13z m-53 -216 c-3 -3 -12 -4
-19 -1 -8 3 -5 6 6 6 11 1 17 -2 13 -5z"/>
<path d="M8698 7773 c6 -2 18 -2 25 0 6 3 1 5 -13 5 -14 0 -19 -2 -12 -5z"/>
<path d="M8750 7682 c0 -4 -15 -14 -32 -21 l-33 -13 25 -8 c37 -12 88 -11 95
1 4 6 -2 19 -14 30 -21 19 -41 25 -41 11z"/>
<path d="M1010 7666 c0 -8 5 -18 10 -21 6 -3 10 3 10 14 0 12 -4 21 -10 21 -5
0 -10 -6 -10 -14z"/>
<path d="M10573 7662 c-6 -4 -14 -25 -18 -47 -4 -22 -18 -60 -30 -85 -13 -25
-28 -64 -35 -87 -7 -24 -33 -66 -57 -94 -23 -28 -43 -59 -43 -69 0 -9 -7 -23
-15 -30 -8 -7 -15 -29 -15 -49 0 -20 -7 -49 -15 -65 -8 -15 -15 -43 -15 -62 0
-18 -10 -49 -24 -68 -13 -20 -27 -52 -31 -73 -6 -31 -3 -40 15 -55 13 -10 34
-21 49 -24 31 -7 96 -31 131 -49 14 -8 48 -16 75 -19 94 -11 194 -48 217 -81
23 -31 -16 -189 -48 -202 -8 -3 -23 -22 -34 -43 -10 -20 -30 -44 -44 -54 -14
-9 -32 -29 -41 -46 -8 -16 -26 -40 -38 -53 -13 -12 -34 -56 -46 -97 -34 -115
-114 -260 -160 -292 -12 -8 -26 -28 -32 -45 -5 -17 -28 -45 -50 -63 -23 -18
-45 -45 -51 -60 -5 -16 -19 -31 -31 -34 -13 -3 -51 -32 -86 -66 l-63 -60 7
-49 c6 -44 15 -58 81 -128 41 -43 82 -90 91 -105 10 -16 21 -28 26 -28 25 0
80 -36 93 -62 14 -27 14 -32 0 -47 -27 -29 -20 -58 14 -66 48 -10 45 -25 -4
-25 -45 0 -45 0 -56 -42 -6 -24 -13 -49 -15 -56 -6 -18 32 -89 77 -143 24 -30
38 -57 38 -75 0 -42 9 -50 80 -75 80 -27 140 -56 140 -68 0 -5 6 -11 13 -14 6
-2 -1 -2 -18 1 -16 2 -36 8 -45 13 -48 26 -130 59 -147 59 -11 0 -28 -9 -39
-21 -16 -18 -19 -37 -19 -115 0 -105 5 -115 85 -158 19 -11 48 -30 64 -43 15
-13 44 -30 62 -38 19 -8 34 -18 34 -23 0 -6 16 -17 36 -27 59 -28 125 -74 189
-132 7 -7 17 -13 22 -13 4 0 19 -16 33 -35 14 -19 29 -35 34 -35 5 0 35 -25
67 -55 32 -30 62 -55 68 -55 6 0 11 -6 11 -13 0 -14 35 -47 49 -47 10 0 71
-70 71 -81 0 -4 27 -35 59 -69 62 -65 83 -110 50 -110 -9 0 -19 4 -21 9 -9 26
-154 171 -170 171 -10 0 -34 16 -54 35 -19 19 -40 35 -47 35 -7 0 -34 11 -62
25 -56 29 -75 17 -34 -20 36 -32 121 -133 164 -195 20 -30 50 -68 66 -85 15
-16 30 -42 34 -56 3 -14 17 -37 30 -51 13 -14 38 -56 56 -94 17 -38 42 -83 55
-100 13 -17 24 -38 24 -47 0 -9 4 -18 9 -21 5 -3 12 -23 16 -43 3 -21 17 -57
30 -80 13 -24 19 -43 14 -43 -6 0 -7 -5 -4 -10 4 -6 11 -8 16 -5 5 4 9 -5 9
-19 0 -36 10 -55 26 -49 9 3 14 -1 14 -12 0 -12 -5 -15 -16 -11 -13 5 -15 2
-10 -16 4 -13 9 -34 12 -48 7 -32 45 -52 62 -34 7 7 12 17 12 21 0 15 53 33
65 23 19 -16 49 12 41 38 -4 12 -12 22 -17 22 -5 0 -9 7 -9 15 0 9 10 15 26
15 24 0 24 1 9 16 -22 23 -3 44 24 27 14 -9 21 -9 30 0 15 15 14 54 -1 60 -10
4 -10 6 0 6 9 1 12 95 12 434 l0 433 -45 34 c-25 19 -45 38 -45 43 0 9 40 -1
54 -14 36 -34 36 -49 36 1345 l0 1355 -22 6 c-15 5 -26 1 -37 -14 -11 -14 -20
-18 -30 -12 -9 6 -21 5 -32 -2 -22 -14 -49 6 -50 37 0 20 -1 20 -9 1 -7 -18
-8 -19 -15 -3 -8 20 -1 115 16 203 14 81 6 152 -23 183 -13 13 -49 42 -80 63
-32 22 -58 43 -58 48 0 4 -18 16 -40 26 -23 10 -53 29 -68 42 -15 14 -54 38
-87 55 -33 17 -71 38 -85 48 -14 9 -50 30 -80 47 -87 47 -104 57 -115 69 -5 7
-26 17 -46 23 -20 6 -46 21 -58 32 -23 22 -169 99 -186 99 -5 0 -15 -4 -22 -8z
m-80 -2589 c-13 -2 -35 -2 -50 0 -16 2 -5 4 22 4 28 0 40 -2 28 -4z m187 -24
c30 -5 16 -6 -40 -2 -47 3 -92 9 -100 15 -15 9 43 4 140 -13z m143 -16 c-13
-2 -33 -2 -45 0 -13 2 -3 4 22 4 25 0 35 -2 23 -4z m330 -4 c205 -2 279 -17
102 -21 -216 -4 -291 -3 -330 6 l-40 10 35 6 c19 3 38 5 41 3 3 -1 90 -3 192
-4z m-276 -5 c-3 -3 -12 -4 -19 -1 -8 3 -5 6 6 6 11 1 17 -2 13 -5z m-191
-448 c20 -21 17 -28 -6 -16 -11 6 -20 15 -20 20 0 14 9 12 26 -4z m487 -26
c10 0 16 -4 13 -9 -7 -11 -87 -2 -101 12 -7 6 3 8 30 3 22 -3 48 -6 58 -6z
m-438 -18 c-3 -3 -11 0 -18 7 -9 10 -8 11 6 5 10 -3 15 -9 12 -12z m40 -12 c3
-5 2 -10 -4 -10 -5 0 -13 5 -16 10 -3 6 -2 10 4 10 5 0 13 -4 16 -10z m79 -35
c15 -11 16 -15 5 -15 -8 0 -24 7 -35 15 -14 11 -15 14 -4 14 8 0 24 -6 34 -14z
m97 -62 c13 -15 12 -15 -11 -3 -34 17 -36 20 -18 20 9 0 22 -7 29 -17z m133
-61 c28 -21 71 -46 96 -56 25 -10 54 -25 65 -35 28 -24 72 -51 85 -51 14 0
109 -63 109 -72 2 -17 -34 -7 -68 19 -20 15 -61 40 -91 54 -30 15 -77 43 -105
63 -27 20 -55 36 -61 36 -15 0 -104 60 -104 71 0 18 24 8 74 -29z m413 -249
c34 -22 78 -63 69 -63 -4 0 -33 18 -63 40 -55 39 -59 57 -6 23z m-13 -1228
c-4 -8 -8 -15 -10 -15 -2 0 -4 7 -4 15 0 8 4 15 10 15 5 0 7 -7 4 -15z"/>
<path d="M7485 7459 c-4 -6 -5 -12 -2 -15 2 -3 7 2 10 11 7 17 1 20 -8 4z"/>
<path d="M1110 7421 c0 -5 5 -13 10 -16 6 -3 10 -2 10 4 0 5 -4 13 -10 16 -5
3 -10 2 -10 -4z"/>
<path d="M7570 7354 c0 -8 5 -12 10 -9 6 3 10 10 10 16 0 5 -4 9 -10 9 -5 0
-10 -7 -10 -16z"/>
<path d="M8867 7350 c-41 -13 -58 -30 -55 -55 1 -12 -5 -34 -15 -49 -21 -32
-16 -56 12 -56 36 0 51 -11 45 -34 -12 -51 54 -81 122 -56 28 11 94 3 94 -11
0 -5 -20 -14 -45 -20 -34 -9 -49 -19 -65 -46 -11 -19 -20 -40 -20 -46 0 -17
59 -67 99 -84 18 -8 51 -26 72 -40 31 -21 37 -29 28 -40 -9 -10 -8 -16 4 -26
23 -18 11 -66 -20 -78 -14 -5 -23 -15 -21 -22 4 -12 109 -69 116 -63 2 2 -1
36 -7 76 -7 52 -16 79 -33 98 -13 14 -18 22 -11 18 18 -10 27 36 19 102 -4 31
-11 107 -16 167 -12 166 -24 208 -68 241 -32 25 -46 28 -121 31 -48 1 -99 -2
-114 -7z"/>
<path d="M7542 7320 c0 -14 2 -19 5 -12 2 6 2 18 0 25 -3 6 -5 1 -5 -13z"/>
<path d="M7570 7294 c0 -8 5 -12 10 -9 6 3 10 10 10 16 0 5 -4 9 -10 9 -5 0
-10 -7 -10 -16z"/>
<path d="M7530 7280 c0 -5 -12 -10 -26 -10 -14 0 -23 -4 -20 -8 7 -11 -34 -70
-68 -99 -14 -13 -26 -32 -26 -44 0 -18 9 -14 64 30 35 28 68 51 72 51 5 0 19
11 31 24 20 21 21 25 7 44 -16 23 -34 29 -34 12z"/>
<path d="M1193 7250 c2 -33 12 -40 19 -12 6 21 -1 42 -12 42 -5 0 -8 -13 -7
-30z"/>
<path d="M4495 7180 c-4 -6 5 -10 20 -10 15 0 24 4 20 10 -3 6 -12 10 -20 10
-8 0 -17 -4 -20 -10z"/>
<path d="M3815 7163 c-79 -5 -90 -10 -91 -37 -1 -17 4 -25 20 -28 29 -6 68 5
64 17 -2 6 19 11 47 11 36 1 40 0 15 -3 -30 -5 -32 -7 -15 -13 l20 -9 -20 -1
c-33 -2 56 -30 96 -30 19 0 62 11 95 24 32 13 86 27 119 31 33 4 69 13 80 21
17 12 -2 14 -155 13 -96 0 -186 1 -200 4 -14 2 -47 2 -75 0z"/>
<path d="M4428 7163 c12 -2 30 -2 40 0 9 3 -1 5 -23 4 -22 0 -30 -2 -17 -4z"/>
<path d="M7505 7130 c-10 -11 -24 -20 -32 -20 -7 0 -13 -4 -13 -9 0 -5 -9 -11
-20 -14 -11 -3 -20 -10 -20 -16 0 -18 16 -13 49 15 17 14 36 24 43 23 31 -4
46 2 51 21 4 16 0 20 -17 20 -13 0 -31 -9 -41 -20z"/>
<path d="M3554 7087 c-6 -16 -35 -25 -91 -29 -19 -1 -33 -8 -36 -18 -2 -8 -27
-23 -56 -34 -28 -10 -55 -25 -60 -34 -5 -8 -24 -23 -42 -31 -42 -21 -52 -46
-15 -39 15 3 24 3 21 0 -3 -3 3 -15 14 -26 24 -27 35 -62 21 -71 -5 -3 -10 -1
-10 4 0 6 -13 11 -30 11 -19 0 -30 5 -30 14 0 8 -9 24 -20 37 l-19 24 -1 -46
c0 -42 3 -47 33 -64 26 -14 38 -15 54 -6 17 8 22 8 27 -5 4 -10 16 -14 38 -12
28 2 33 7 33 28 0 20 6 26 28 28 16 2 34 -2 42 -8 13 -11 245 -27 245 -16 0 3
-15 13 -32 22 -33 17 -48 31 -48 47 0 13 63 -4 75 -20 6 -8 37 -16 80 -20 62
-5 72 -3 88 15 37 41 7 70 -66 63 -18 -2 -47 21 -47 37 0 12 -24 22 -51 22
-17 0 -18 3 -9 20 9 18 8 20 -15 20 -26 0 -30 6 -17 28 5 8 16 10 28 5 17 -6
17 -5 5 10 -7 9 -20 17 -29 17 -8 0 -20 7 -26 15 -17 23 -74 31 -82 12z"/>
<path d="M7840 7075 c0 -9 6 -12 15 -9 8 4 15 10 15 15 0 5 -7 9 -15 9 -8 0
-15 -7 -15 -15z"/>
<path d="M7503 7050 c-35 -14 -28 -30 7 -17 17 6 30 15 30 19 0 10 -9 9 -37
-2z"/>
<path d="M1280 7040 c0 -5 5 -10 10 -10 6 0 10 5 10 10 0 6 -4 10 -10 10 -5 0
-10 -4 -10 -10z"/>
<path d="M7715 6970 c-11 -5 -30 -9 -43 -9 -13 -1 -34 -13 -46 -28 -13 -16
-41 -37 -62 -49 -22 -11 -49 -27 -61 -34 -12 -8 -26 -11 -30 -7 -4 5 -1 12 7
17 10 6 12 12 5 19 -8 8 -22 2 -45 -18 -19 -15 -45 -31 -57 -35 -38 -12 -29
-37 10 -29 17 3 36 10 42 14 5 5 27 9 50 9 22 1 58 8 80 16 64 23 160 30 187
12 13 -8 59 -18 103 -22 44 -4 84 -11 90 -15 24 -20 129 -39 241 -45 67 -4
147 -13 178 -21 77 -20 119 -19 147 5 l24 19 -25 2 c-14 1 -33 1 -42 0 -10 -1
-28 8 -40 21 -15 15 -37 24 -63 25 -22 2 -41 7 -43 13 -2 5 -13 10 -25 10 -12
0 -46 9 -75 20 -29 11 -57 18 -62 15 -4 -3 -27 3 -50 14 -38 17 -39 19 -18 25
18 5 20 8 9 15 -7 5 -11 13 -7 19 3 6 2 13 -3 16 -15 10 -355 15 -376 6z m352
-31 c-12 -7 -27 -7 -45 0 -25 9 -24 9 18 10 36 0 41 -2 27 -10z"/>
<path d="M3888 6953 c7 -3 16 -2 19 1 4 3 -2 6 -13 5 -11 0 -14 -3 -6 -6z"/>
<path d="M8130 6920 c0 -5 16 -10 35 -10 19 0 35 5 35 10 0 6 -16 10 -35 10
-19 0 -35 -4 -35 -10z"/>
<path d="M7505 6900 c-3 -5 3 -10 14 -10 11 0 23 5 26 10 3 6 -3 10 -14 10
-11 0 -23 -4 -26 -10z"/>
<path d="M7290 6775 c-16 -19 -1 -19 24 0 16 12 17 15 4 15 -8 0 -21 -7 -28
-15z"/>
<path d="M7205 6730 c-8 -9 -15 -20 -15 -24 0 -4 -7 -14 -15 -22 -27 -28 -16
-36 18 -13 38 27 67 55 67 66 0 15 -40 9 -55 -7z"/>
<path d="M9203 6603 c-18 -7 -16 -78 3 -97 31 -31 44 -20 44 38 0 40 -4 55
-16 60 -9 3 -16 6 -17 5 -1 0 -8 -3 -14 -6z"/>
<path d="M6284 6414 c-39 -35 -39 -35 -112 -30 -62 5 -74 3 -79 -11 -4 -9 -2
-18 5 -21 6 -2 9 -9 6 -17 -6 -16 44 -45 76 -45 12 0 34 -6 48 -14 15 -8 52
-18 82 -24 59 -11 80 -3 80 28 0 10 7 23 15 30 20 17 19 84 -2 105 -15 16 -55
35 -73 35 -4 0 -25 -16 -46 -36z"/>
<path d="M6788 6373 c-9 -10 -21 -28 -27 -40 -14 -28 -14 -130 1 -139 20 -13
142 -4 186 14 43 17 44 18 38 57 -2 22 -12 44 -21 50 -10 6 -36 25 -59 42 -46
37 -94 43 -118 16z"/>
<path d="M6517 5621 c-9 -25 -19 -33 -47 -37 -43 -7 -131 -54 -140 -74 -4 -8
-12 -25 -18 -37 -7 -13 -12 -34 -12 -48 0 -28 -37 -50 -77 -46 -19 2 -23 -3
-23 -24 0 -35 48 -55 67 -29 7 10 13 26 13 35 0 14 9 17 45 17 33 -1 49 4 59
17 21 29 82 42 158 33 73 -7 112 -28 166 -88 107 -119 181 -209 196 -238 9
-18 25 -42 34 -53 9 -12 26 -32 37 -45 l21 -24 -1 22 c0 13 -6 32 -12 43 -6
11 -12 23 -12 27 -8 49 -16 68 -27 68 -8 0 -14 7 -14 15 0 28 -63 150 -97 188
-18 20 -33 43 -33 51 0 7 -17 29 -37 48 -21 18 -46 46 -56 62 -10 15 -33 34
-50 42 -44 19 -61 34 -78 69 -20 42 -47 44 -62 6z"/>
<path d="M1500 5410 c0 -5 5 -10 10 -10 6 0 10 5 10 10 0 6 -4 10 -10 10 -5 0
-10 -4 -10 -10z"/>
<path d="M6135 5310 c-3 -6 -17 -7 -29 -4 -19 4 -27 0 -38 -23 -8 -15 -21 -38
-28 -50 -26 -41 -5 -41 72 -2 10 5 24 9 31 9 18 0 41 45 34 64 -7 18 -33 21
-42 6z"/>
<path d="M7065 4840 c-4 -7 0 -19 9 -28 13 -14 16 -14 16 -2 0 25 -16 44 -25
30z"/>
<path d="M0 4715 c0 -8 4 -15 10 -15 5 0 7 7 4 15 -4 8 -8 15 -10 15 -2 0 -4
-7 -4 -15z"/>
<path d="M10245 4644 c-16 -25 -16 -27 2 -47 11 -12 18 -33 17 -47 -1 -23 23
-53 37 -44 3 2 7 31 8 64 3 93 -28 129 -64 74z"/>
<path d="M7411 4564 c0 -11 3 -14 6 -6 3 7 2 16 -1 19 -3 4 -6 -2 -5 -13z"/>
<path d="M0 4434 c0 -66 0 -66 25 -60 14 4 45 9 70 13 25 3 45 9 45 13 0 4
-27 19 -61 34 -51 22 -59 29 -54 46 5 14 2 20 -9 20 -13 0 -16 -13 -16 -66z"/>
<path d="M117 4453 c-4 -3 -7 -11 -7 -17 0 -6 5 -5 12 2 6 6 9 14 7 17 -3 3
-9 2 -12 -2z"/>
<path d="M10347 4360 c3 -12 0 -20 -6 -20 -16 0 20 -49 37 -50 6 0 12 -4 12
-9 0 -5 17 -20 38 -32 42 -26 142 -90 157 -101 18 -14 87 -72 113 -95 14 -13
29 -23 34 -23 5 0 23 -16 41 -35 25 -27 49 -40 107 -56 41 -12 80 -26 87 -31
7 -5 17 -8 23 -6 12 4 -29 48 -95 103 -26 22 -67 57 -89 78 -23 22 -54 46 -71
54 -29 15 -86 59 -135 105 -36 34 -76 61 -152 102 -77 41 -109 47 -101 16z"/>
<path d="M0 4055 c0 -226 3 -310 12 -325 10 -16 10 -24 1 -40 -19 -29 -18
-2836 0 -2858 9 -12 9 -16 0 -19 -10 -4 -13 -94 -13 -409 l0 -404 181 0 181 0
-3 93 c-3 93 -13 153 -32 195 -8 17 -8 29 2 44 13 20 6 98 -9 108 -13 9 -24
114 -11 106 18 -12 13 40 -8 77 -13 24 -16 39 -9 50 7 13 4 25 -12 44 -17 22
-18 28 -7 42 24 27 27 60 7 74 -10 7 -18 25 -18 42 -3 144 -2 306 2 313 3 5
-2 21 -10 36 -7 16 -14 33 -14 39 0 5 -7 15 -16 22 -14 10 -12 14 16 38 26 23
30 30 20 42 -9 11 -9 15 -1 15 6 0 11 5 11 10 0 6 -7 10 -15 10 -19 0 -19 26
0 34 8 3 15 12 15 20 0 8 10 18 22 22 22 7 22 7 2 23 -11 9 -18 23 -16 33 2 9
-2 19 -7 23 -17 10 -13 45 4 45 10 0 15 10 15 29 0 16 4 40 9 53 4 13 11 45
15 72 8 48 8 49 -18 42 -25 -6 -26 -4 -26 31 0 21 7 51 15 67 8 15 15 38 15
50 0 31 23 76 38 76 9 0 11 7 7 23 -4 12 -9 30 -11 39 -3 9 2 28 11 41 8 13
12 26 9 30 -4 4 -9 60 -11 126 -5 109 -3 123 16 154 11 19 19 36 17 38 -2 2
-6 28 -9 57 -5 43 -3 52 10 52 12 0 14 7 10 37 -4 21 -11 39 -17 41 -7 3 -5
10 4 21 15 16 14 19 -4 36 -25 23 -25 40 0 72 11 14 17 30 14 35 -10 16 17
161 34 180 9 11 13 29 10 50 -3 18 -1 43 5 56 8 17 8 25 -1 31 -7 4 -13 31
-13 62 -1 30 -6 60 -12 67 -7 9 -7 20 0 35 8 17 7 28 -3 41 -13 19 -35 19 -79
0 -14 -5 -6 8 23 43 35 42 40 54 30 64 -18 17 -11 80 8 72 8 -3 14 0 14 6 0 6
-4 11 -10 11 -5 0 -17 14 -26 31 -15 30 -18 31 -59 26 -23 -4 -45 -3 -49 0 -3
3 5 20 18 37 35 47 39 96 9 124 -16 14 -22 29 -18 41 8 25 -18 46 -34 27 -8
-10 -9 -16 -1 -21 5 -3 10 -13 10 -21 0 -13 -5 -12 -30 3 -34 20 -39 42 -11
50 11 3 21 17 24 33 4 18 12 27 23 26 9 0 19 5 21 12 3 7 -1 10 -11 6 -13 -5
-16 1 -16 30 0 20 5 36 11 36 7 0 9 10 7 25 -3 14 -1 25 3 25 5 0 9 14 9 30 0
17 -5 30 -12 30 -10 0 -10 2 0 9 10 6 10 10 -3 21 -9 8 -15 29 -15 59 0 34 -6
54 -21 70 -12 12 -18 29 -15 37 3 9 -1 28 -10 43 -16 26 -20 28 -105 30 l-89
2 0 -306z m50 -120 c0 -8 -4 -15 -9 -15 -5 0 -11 7 -15 15 -3 9 0 15 9 15 8 0
15 -7 15 -15z m270 -1540 c0 -8 -7 -15 -15 -15 -16 0 -20 12 -8 23 11 12 23 8
23 -8z"/>
<path d="M10337 4264 c-3 -3 -3 -12 0 -20 3 -8 0 -21 -7 -29 -7 -8 -16 -30
-20 -50 -8 -38 7 -65 36 -65 8 0 31 -9 51 -20 21 -11 44 -20 52 -20 8 0 12 -2
9 -5 -3 -3 -40 4 -83 16 -77 21 -78 21 -97 2 -19 -20 -19 -20 1 -64 11 -24 28
-64 38 -88 15 -36 34 -55 113 -111 52 -37 104 -70 116 -74 11 -3 38 -22 60
-41 21 -19 44 -35 51 -35 6 0 13 -3 15 -7 2 -5 29 -21 61 -38 31 -16 57 -32
57 -36 0 -4 13 -9 28 -12 43 -9 169 -97 138 -97 -11 0 -81 43 -109 66 -16 13
-35 24 -42 24 -17 0 -93 39 -101 51 -3 5 -29 21 -57 36 -29 14 -54 29 -57 32
-9 12 -118 81 -128 81 -6 0 -17 6 -24 13 -20 18 -78 58 -78 54 0 -23 52 -110
91 -153 27 -30 49 -60 48 -67 0 -9 -2 -9 -6 1 -5 14 -33 17 -33 3 0 -6 5 -13
10 -16 17 -10 12 -131 -5 -145 -8 -7 -15 -20 -15 -30 0 -26 -31 -48 -80 -56
-25 -4 -61 -15 -80 -26 -19 -10 -38 -18 -43 -18 -5 0 -23 -11 -41 -25 -18 -14
-40 -25 -49 -25 -10 0 -26 -9 -38 -21 -11 -11 -30 -24 -42 -28 -21 -8 -22 -13
-18 -120 3 -118 -8 -145 -28 -66 -6 25 -15 45 -19 45 -14 0 -32 -24 -32 -42 0
-16 -17 -23 -42 -19 -5 0 -8 -6 -8 -14 0 -8 4 -15 9 -15 13 0 19 -35 9 -54 -6
-11 -4 -33 7 -66 17 -52 23 -58 43 -38 19 19 25 -14 12 -62 -8 -30 -8 -46 -1
-53 17 -17 13 -51 -9 -70 -12 -10 -20 -29 -20 -47 0 -25 5 -33 30 -42 32 -11
53 -38 45 -60 -9 -28 40 -92 95 -120 30 -15 58 -35 63 -43 4 -8 19 -15 32 -15
13 0 25 -5 27 -10 4 -14 95 -40 178 -52 103 -15 277 -13 365 4 43 9 94 15 112
14 18 -1 33 2 33 6 0 17 77 28 229 34 90 3 176 10 190 16 14 5 37 12 51 14 28
5 87 67 96 102 12 43 -27 237 -50 253 -11 9 0 39 14 39 5 0 10 -10 10 -22 0
-17 3 -19 12 -10 10 10 6 19 -19 42 -18 17 -34 30 -37 30 -2 0 -6 -12 -8 -27
-2 -17 -10 -29 -20 -31 -16 -3 -18 5 -18 65 -1 37 -8 86 -16 108 -8 22 -27 87
-41 145 -15 58 -31 107 -35 108 -4 2 -8 9 -8 15 0 6 -6 18 -13 26 -7 9 -26 50
-42 91 -16 41 -35 80 -42 86 -7 6 -13 21 -13 33 0 11 -4 21 -9 21 -5 0 -20 24
-35 54 -14 29 -38 66 -52 82 -15 15 -33 42 -40 60 -8 18 -18 35 -24 39 -6 3
-36 39 -67 78 -51 64 -103 123 -155 178 -9 9 -32 25 -52 34 -20 10 -36 23 -36
31 0 14 -46 64 -59 64 -5 0 -32 23 -60 50 -28 28 -57 50 -64 50 -7 0 -26 13
-43 28 -34 33 -159 104 -167 96z m176 -231 c-7 -2 -19 -2 -25 0 -7 3 -2 5 12
5 14 0 19 -2 13 -5z m77 -13 c13 -9 13 -10 0 -9 -8 0 -24 4 -35 9 l-20 9 20 0
c11 0 27 -4 35 -9z m90 -30 c0 -5 10 -11 23 -11 13 -1 16 -3 6 -6 -8 -2 -31 3
-50 11 -33 15 -34 15 -6 16 15 0 27 -4 27 -10z m317 -526 c-3 -3 -12 -4 -19
-1 -8 3 -5 6 6 6 11 1 17 -2 13 -5z"/>
<path d="M1028 3909 c-20 -11 -23 -46 -8 -101 16 -57 58 -61 86 -6 8 16 11 34
7 41 -4 6 -6 26 -4 44 2 31 1 33 -31 33 -18 0 -41 -5 -50 -11z"/>
<path d="M1075 3740 c-3 -5 -2 -10 4 -10 5 0 13 5 16 10 3 6 2 10 -4 10 -5 0
-13 -4 -16 -10z"/>
<path d="M1080 3650 c0 -11 5 -20 10 -20 6 0 10 9 10 20 0 11 -4 20 -10 20 -5
0 -10 -9 -10 -20z"/>
<path d="M1080 3580 c0 -39 7 -73 30 -135 7 -19 7 -19 19 4 18 32 6 101 -24
142 l-25 33 0 -44z"/>
<path d="M390 3500 c-13 -8 -12 -10 3 -10 9 0 17 5 17 10 0 12 -1 12 -20 0z"/>
<path d="M11530 2841 c0 -11 -4 -23 -10 -26 -5 -3 -10 -12 -9 -18 0 -8 2 -8 6
1 3 7 16 18 30 23 27 10 27 32 0 37 -11 2 -17 -3 -17 -17z"/>
<path d="M11590 2853 c0 -18 12 -43 20 -43 12 0 6 28 -8 42 -8 8 -12 9 -12 1z"/>
<path d="M1833 2719 c-6 -6 -29 -13 -50 -14 -40 -2 -115 -21 -142 -35 -18 -9
-127 -41 -246 -72 -44 -12 -81 -25 -83 -30 -2 -4 -9 -8 -15 -8 -6 0 -18 -7
-27 -15 -8 -8 -44 -21 -78 -29 -34 -8 -78 -22 -99 -33 -32 -15 -38 -23 -37
-48 1 -17 11 -50 23 -74 11 -24 23 -60 27 -80 3 -20 9 -47 14 -61 5 -14 11
-36 14 -50 3 -14 17 -37 31 -53 20 -22 28 -25 42 -17 10 6 52 21 93 35 100 32
159 53 197 70 17 8 40 15 50 15 11 0 84 21 164 46 79 25 176 52 214 59 39 8
99 23 135 35 88 29 185 38 192 18 4 -8 25 -40 48 -71 34 -45 49 -57 71 -57 15
0 29 -6 32 -12 3 -10 41 -13 144 -13 130 0 142 2 174 24 19 13 40 34 46 47 10
21 9 24 -9 24 -10 0 -28 5 -40 11 -19 10 -20 26 -2 73 4 11 1 16 -10 16 -9 0
-16 -4 -16 -9 0 -5 -10 -13 -22 -16 -13 -4 -34 -17 -48 -30 -33 -30 -78 -37
-107 -18 -15 10 -23 11 -23 4 0 -6 -8 -11 -17 -11 -15 0 -15 2 -4 9 12 8 12
12 2 25 -11 13 -11 16 0 16 9 1 8 5 -5 15 -16 12 -17 15 -4 15 13 0 28 19 28
36 0 12 -28 1 -43 -16 -20 -24 -47 -26 -47 -5 0 8 4 15 9 15 18 0 22 34 6 47
-10 6 -14 16 -10 22 10 18 -18 12 -50 -10 -16 -11 -43 -27 -59 -35 -30 -17
-29 -8 2 29 23 26 8 31 -45 14 -26 -9 -51 -13 -55 -9 -4 4 4 24 17 45 27 39
23 45 -20 25 -21 -9 -28 -9 -34 1 -6 10 -17 10 -44 3 -20 -6 -38 -8 -41 -5 -2
3 -20 -7 -39 -21 -19 -14 -39 -26 -45 -26 -15 0 -16 17 -2 25 6 3 10 18 10 32
0 22 -3 24 -26 19 -22 -6 -25 -4 -20 9 4 12 0 19 -14 22 -20 5 -29 33 -10 33
6 0 10 7 10 16 0 11 -6 14 -22 8 -13 -4 -38 -10 -55 -14 -30 -7 -32 -6 -22 12
13 24 8 43 -8 27z"/>
<path d="M5580 2250 c0 -21 -3 -22 -86 -16 -48 3 -93 11 -100 17 -11 9 -14 6
-16 -12 -1 -13 -3 -33 -4 -44 -1 -11 -2 -27 -3 -35 -1 -9 -15 -24 -32 -34 -24
-14 -30 -24 -26 -42 2 -14 -1 -28 -9 -32 -21 -11 -1 -32 33 -35 20 -1 29 -6
26 -14 -3 -7 1 -13 8 -13 8 0 27 -14 43 -31 25 -26 31 -28 38 -15 5 8 15 13
22 10 7 -3 16 2 20 12 5 12 9 14 20 5 7 -6 16 -8 19 -4 4 3 7 1 7 -6 0 -21 61
-109 79 -114 9 -2 23 -17 31 -33 8 -16 29 -47 46 -69 18 -22 47 -67 65 -100
18 -33 40 -65 49 -72 10 -7 23 -27 31 -45 7 -18 25 -49 40 -68 16 -19 42 -63
58 -97 17 -33 34 -63 39 -65 4 -1 25 -39 46 -83 20 -44 41 -87 46 -95 22 -36
70 -145 70 -159 0 -6 10 -32 22 -58 56 -125 77 -180 85 -225 3 -15 11 -33 19
-39 8 -6 14 -18 14 -27 0 -9 8 -34 18 -56 10 -23 35 -93 56 -156 21 -63 44
-129 52 -147 8 -17 14 -39 14 -49 0 -24 18 -81 41 -129 10 -22 19 -48 19 -57
0 -17 16 -18 196 -18 153 0 195 3 191 13 -2 6 -14 44 -26 82 -13 39 -26 77
-31 85 -4 9 -11 35 -15 59 -7 43 -18 74 -56 158 -10 23 -19 48 -19 56 0 8 -7
28 -15 43 -8 16 -15 41 -15 55 0 14 -7 34 -15 45 -8 10 -15 25 -15 33 0 8 -8
32 -19 55 -10 23 -29 73 -42 111 -12 39 -35 94 -51 123 -15 29 -28 59 -28 66
0 7 -7 19 -15 26 -8 7 -15 25 -15 41 0 15 -6 34 -12 41 -14 15 -47 78 -76 148
-11 25 -31 58 -45 74 -14 16 -29 41 -32 55 -4 14 -22 43 -42 64 -19 22 -44 58
-54 81 -10 23 -30 52 -44 66 -14 13 -31 35 -38 49 -8 15 -20 36 -27 48 -8 12
-10 26 -6 30 5 4 11 2 13 -4 3 -7 11 -13 18 -13 8 0 20 -6 27 -14 8 -7 48 -30
90 -50 l76 -37 38 20 c22 11 50 26 64 32 14 7 59 35 100 63 41 27 91 60 111
73 71 46 67 85 -18 177 -23 25 -43 54 -45 63 -2 10 -10 18 -18 19 -28 1 -70
16 -70 26 0 5 -7 16 -16 25 -11 12 -18 13 -27 4 -15 -15 -33 -14 -70 4 -39 18
-187 65 -205 65 -7 0 -43 14 -80 31 -63 30 -74 32 -197 34 -71 1 -137 4 -145
6 -9 2 -15 -3 -15 -13 0 -29 -12 -30 -33 -3 -12 15 -27 28 -34 29 -7 1 -17 4
-23 8 -5 3 -25 9 -42 13 -29 6 -33 4 -33 -15z m-110 -246 c0 -21 -17 -17 -23
5 -3 14 -1 18 9 14 8 -3 14 -11 14 -19z m-30 -8 c0 -2 -9 -6 -20 -9 -11 -3
-20 -1 -20 4 0 5 9 9 20 9 11 0 20 -2 20 -4z m605 -548 c5 4 -2 -7 -15 -25
-13 -18 -27 -30 -32 -27 -14 9 -9 24 9 24 13 0 14 3 5 12 -18 18 -14 30 7 19
10 -6 22 -7 26 -3z m75 -28 c0 -9 -61 -22 -68 -15 -3 3 2 5 11 5 10 0 17 6 17
14 0 9 7 12 20 9 11 -3 20 -9 20 -13z m-90 -56 c0 -8 -4 -12 -10 -9 -5 3 -10
10 -10 16 0 5 5 9 10 9 6 0 10 -7 10 -16z m75 6 c-3 -5 -10 -10 -16 -10 -5 0
-9 5 -9 10 0 6 7 10 16 10 8 0 12 -4 9 -10z m75 -56 c0 -22 -3 -25 -22 -20
-13 3 -26 6 -30 6 -5 0 -8 5 -8 11 0 5 4 8 9 4 6 -3 16 1 23 9 19 22 28 19 28
-10z m90 -43 c0 -12 -39 -25 -48 -16 -7 7 17 25 36 25 6 0 12 -4 12 -9z m100
-11 c0 -5 -5 -10 -11 -10 -5 0 -7 5 -4 10 3 6 8 10 11 10 2 0 4 -4 4 -10z
m-210 -24 c0 -2 -3 -12 -6 -20 -5 -13 -9 -14 -20 -5 -16 13 -9 29 12 29 8 0
14 -2 14 -4z m160 -15 c0 -26 -20 -38 -34 -19 -12 16 -46 20 -46 6 0 -4 -7 -8
-16 -8 -35 0 -5 25 37 31 24 3 47 7 52 7 4 1 7 -7 7 -17z m34 0 c8 -12 -4 -71
-14 -71 -11 0 -19 37 -13 60 6 21 18 26 27 11z m-199 -81 c3 -5 2 -10 -4 -10
-5 0 -13 5 -16 10 -3 6 -2 10 4 10 5 0 13 -4 16 -10z m32 -82 c-3 -8 -6 -5 -6
6 -1 11 2 17 5 13 3 -3 4 -12 1 -19z m263 -22 c0 -3 -4 -8 -10 -11 -5 -3 -10
-1 -10 4 0 6 5 11 10 11 6 0 10 -2 10 -4z"/>
<path d="M5097 2253 c-12 -11 -8 -23 8 -23 20 0 19 -24 -1 -41 -14 -11 -18
-11 -28 1 -6 9 -23 21 -38 27 -26 12 -28 11 -28 -11 0 -18 8 -25 39 -34 53
-16 61 -15 82 10 24 27 36 16 20 -18 -14 -32 -9 -41 30 -46 48 -7 89 33 93 92
l4 45 -56 1 c-32 1 -60 -4 -64 -10 -5 -8 -13 -7 -28 2 -23 14 -24 14 -33 5z"/>
<path d="M10020 507 c-14 -7 -25 -18 -26 -24 -1 -7 -2 -20 -2 -28 -3 -21 -35
-19 -64 5 -24 18 -91 30 -103 18 -3 -3 -7 -32 -9 -64 -1 -33 -4 -63 -6 -69 -2
-5 0 -25 4 -44 7 -29 5 -37 -15 -52 -22 -17 -23 -20 -10 -51 7 -18 18 -51 25
-74 10 -37 26 -57 85 -106 18 -15 64 -17 495 -18 262 0 476 3 476 6 0 13 -106
111 -148 137 -22 15 -43 31 -47 37 -3 6 -22 17 -41 25 -19 8 -34 19 -34 24 0
6 -17 19 -37 30 -21 10 -47 28 -57 40 -11 12 -42 32 -70 46 -50 25 -104 61
-137 91 -8 8 -21 14 -28 14 -6 0 -28 11 -49 25 -29 19 -47 24 -79 21 -28 -3
-46 0 -54 10 -14 17 -35 17 -69 1z"/>
</g>
</svg>
